<svg width="19" height="17" viewBox="0 0 19 17" fill="none" xmlns="http://www.w3.org/2000/svg">
<path d="M9.55286 6.42011V9.75345M9.55286 13.0868H9.56119M8.39895 2.16322L1.54488 14.0021C1.16471 14.6587 0.974626 14.9871 1.00272 15.2565C1.02723 15.4916 1.15037 15.7051 1.3415 15.8441C1.56063 16.0034 1.94002 16.0034 2.69879 16.0034H16.4069C17.1657 16.0034 17.5451 16.0034 17.7642 15.8441C17.9553 15.7051 18.0785 15.4916 18.103 15.2565C18.1311 14.9871 17.941 14.6587 17.5608 14.0021L10.7068 2.16321C10.3279 1.50891 10.1385 1.18176 9.89144 1.07188C9.67589 0.976039 9.42982 0.976039 9.21427 1.07188C8.96717 1.18176 8.77776 1.50891 8.39895 2.16322Z" stroke="#DC6803" stroke-width="1.66667" stroke-linecap="round" stroke-linejoin="round"/>
</svg>
