<svg width="13" height="10" viewBox="0 0 13 10" fill="none" xmlns="http://www.w3.org/2000/svg">
<path d="M8.40875 0.855489C8.27792 0.878657 8.17298 0.974055 8.13618 1.1008C8.09939 1.22891 8.13754 1.36519 8.23431 1.45514L11.4397 4.66052H1.13667C1.12576 4.66052 1.11486 4.66052 1.10396 4.66052C0.911799 4.67006 0.761887 4.8336 0.771427 5.02576C0.780967 5.21792 0.944507 5.36783 1.13667 5.35829H11.4397L8.23431 8.56368C8.13073 8.64817 8.08303 8.78309 8.11301 8.91392C8.143 9.04339 8.24521 9.14561 8.37468 9.17559C8.50551 9.20557 8.64043 9.15787 8.72493 9.0543L12.53 5.26017L12.7698 5.00941L12.53 4.75864L8.72493 0.964515C8.6527 0.886834 8.54776 0.847312 8.44146 0.855489C8.43055 0.855489 8.41965 0.855489 8.40875 0.855489Z" fill="#2D31A6"/>
</svg>
