<svg width="24" height="24" viewBox="0 0 24 24" xmlns="http://www.w3.org/2000/svg">
<path fill-rule="evenodd" clip-rule="evenodd" d="M23 16V8C23 6.895 22.105 6 21 6H8C7.766 6 7.54 6.082 7.36 6.232L1.36 11.232C1.132 11.422 1 11.703 1 12C1 12.297 1.132 12.578 1.36 12.768L7.36 17.768C7.54 17.918 7.766 18 8 18H21C22.105 18 23 17.105 23 16ZM15.914 12L17.207 10.707C17.597 10.317 17.597 9.683 17.207 9.293C16.817 8.903 16.183 8.903 15.793 9.293L14.5 10.586L13.207 9.293C12.817 8.903 12.183 8.903 11.793 9.293C11.403 9.683 11.403 10.317 11.793 10.707L13.086 12L11.793 13.293C11.403 13.683 11.403 14.317 11.793 14.707C12.183 15.097 12.817 15.097 13.207 14.707L14.5 13.414L15.793 14.707C16.183 15.097 16.817 15.097 17.207 14.707C17.597 14.317 17.597 13.683 17.207 13.293L15.914 12Z" />
</svg>
