<svg width="16" height="16" viewBox="0 0 16 16" fill="none" xmlns="http://www.w3.org/2000/svg">
<path d="M2.87499 0.5C1.38668 0.5 0.166656 1.72003 0.166656 3.20833V12.7917C0.166656 14.28 1.38668 15.5 2.87499 15.5H12.4583C13.9466 15.5 15.1667 14.28 15.1667 12.7917V3.20833C15.1667 1.72003 13.9466 0.5 12.4583 0.5H2.87499ZM2.87499 1.75H12.4583C13.2708 1.75 13.9167 2.39581 13.9167 3.20833V3.83333H1.41666V3.20833C1.41666 2.39581 2.06246 1.75 2.87499 1.75ZM1.41666 5.08333H13.9167V12.7917C13.9167 13.6042 13.2708 14.25 12.4583 14.25H2.87499C2.06246 14.25 1.41666 13.6042 1.41666 12.7917V5.08333ZM4.12499 6.75C3.84872 6.75 3.58377 6.85975 3.38842 7.0551C3.19307 7.25045 3.08332 7.5154 3.08332 7.79167C3.08332 8.06793 3.19307 8.33289 3.38842 8.52824C3.58377 8.72359 3.84872 8.83333 4.12499 8.83333C4.40126 8.83333 4.66621 8.72359 4.86156 8.52824C5.05691 8.33289 5.16666 8.06793 5.16666 7.79167C5.16666 7.5154 5.05691 7.25045 4.86156 7.0551C4.66621 6.85975 4.40126 6.75 4.12499 6.75ZM7.66666 6.75C7.39039 6.75 7.12544 6.85975 6.93009 7.0551C6.73474 7.25045 6.62499 7.5154 6.62499 7.79167C6.62499 8.06793 6.73474 8.33289 6.93009 8.52824C7.12544 8.72359 7.39039 8.83333 7.66666 8.83333C7.94292 8.83333 8.20788 8.72359 8.40323 8.52824C8.59858 8.33289 8.70832 8.06793 8.70832 7.79167C8.70832 7.5154 8.59858 7.25045 8.40323 7.0551C8.20788 6.85975 7.94292 6.75 7.66666 6.75ZM11.2083 6.75C10.9321 6.75 10.6671 6.85975 10.4718 7.0551C10.2764 7.25045 10.1667 7.5154 10.1667 7.79167C10.1667 8.06793 10.2764 8.33289 10.4718 8.52824C10.6671 8.72359 10.9321 8.83333 11.2083 8.83333C11.4846 8.83333 11.7495 8.72359 11.9449 8.52824C12.1402 8.33289 12.25 8.06793 12.25 7.79167C12.25 7.5154 12.1402 7.25045 11.9449 7.0551C11.7495 6.85975 11.4846 6.75 11.2083 6.75ZM4.12499 10.5C3.84872 10.5 3.58377 10.6097 3.38842 10.8051C3.19307 11.0004 3.08332 11.2654 3.08332 11.5417C3.08332 11.8179 3.19307 12.0829 3.38842 12.2782C3.58377 12.4736 3.84872 12.5833 4.12499 12.5833C4.40126 12.5833 4.66621 12.4736 4.86156 12.2782C5.05691 12.0829 5.16666 11.8179 5.16666 11.5417C5.16666 11.2654 5.05691 11.0004 4.86156 10.8051C4.66621 10.6097 4.40126 10.5 4.12499 10.5ZM7.66666 10.5C7.39039 10.5 7.12544 10.6097 6.93009 10.8051C6.73474 11.0004 6.62499 11.2654 6.62499 11.5417C6.62499 11.8179 6.73474 12.0829 6.93009 12.2782C7.12544 12.4736 7.39039 12.5833 7.66666 12.5833C7.94292 12.5833 8.20788 12.4736 8.40323 12.2782C8.59858 12.0829 8.70832 11.8179 8.70832 11.5417C8.70832 11.2654 8.59858 11.0004 8.40323 10.8051C8.20788 10.6097 7.94292 10.5 7.66666 10.5Z" fill="black"/>
</svg>
