<svg width="26" height="26" viewBox="0 0 26 26" fill="none" xmlns="http://www.w3.org/2000/svg">
<path d="M19.9249 2.59152C19.7525 2.59157 19.584 2.64303 19.441 2.73933C19.298 2.83563 19.1869 2.97239 19.1221 3.13212C19.0572 3.29186 19.0414 3.46732 19.0768 3.63606C19.1121 3.8048 19.197 3.95916 19.3206 4.07941L21.3078 6.06665H13.8667C13.7518 6.06503 13.6378 6.08625 13.5312 6.12907C13.4247 6.1719 13.3277 6.23548 13.2459 6.31611C13.1641 6.39675 13.0991 6.49284 13.0548 6.5988C13.0105 6.70475 12.9877 6.81846 12.9877 6.93332C12.9877 7.04817 13.0105 7.16188 13.0548 7.26784C13.0991 7.3738 13.1641 7.46989 13.2459 7.55052C13.3277 7.63116 13.4247 7.69474 13.5312 7.73757C13.6378 7.78039 13.7518 7.80161 13.8667 7.79999H21.3078L19.3206 9.78723C19.2374 9.86708 19.171 9.96274 19.1252 10.0686C19.0795 10.1744 19.0553 10.2883 19.0542 10.4036C19.053 10.5189 19.0748 10.6333 19.1184 10.7401C19.162 10.8468 19.2264 10.9438 19.308 11.0253C19.3895 11.1069 19.4865 11.1713 19.5933 11.2149C19.7 11.2585 19.8144 11.2803 19.9297 11.2792C20.045 11.278 20.1589 11.2538 20.2647 11.2081C20.3706 11.1623 20.4662 11.0959 20.5461 11.0127L24.0128 7.54608C24.1752 7.38354 24.2665 7.16313 24.2665 6.93332C24.2665 6.7035 24.1752 6.4831 24.0128 6.32056L20.5461 2.85389C20.4653 2.77087 20.3687 2.70488 20.262 2.65981C20.1553 2.61475 20.0407 2.59153 19.9249 2.59152ZM6.70652 4.3367C6.59782 4.3277 6.48715 4.3367 6.37644 4.36379C5.94657 4.46865 5.38891 4.72332 4.80391 5.30832C2.97265 7.13959 2.00106 10.2267 8.88672 17.1133C15.7724 23.9998 18.8595 23.0282 20.6917 21.1961C21.2784 20.6093 21.533 20.0509 21.6379 19.6202C21.7445 19.179 21.554 18.725 21.1622 18.4962C20.1846 17.9242 18.0748 16.6874 17.0964 16.1146C16.7748 15.9265 16.3802 15.9298 16.0604 16.1196L14.4422 17.0845C14.0799 17.3003 13.6273 17.2759 13.2945 17.0168C12.7199 16.5678 11.7959 15.8118 10.9908 15.0075C10.1856 14.2024 9.42958 13.2784 8.98152 12.7038C8.72238 12.3718 8.69714 11.9184 8.91381 11.5561L9.87865 9.93788C10.0693 9.61808 10.0701 9.22009 9.88204 8.89855L7.50547 4.84113C7.33257 4.54733 7.03261 4.36372 6.70652 4.3367Z" fill="#2D3282"/>
<circle cx="8" cy="18" r="6" fill="#12B76A"/>
<path d="M5 18.5L7 20.5L11 16.5" stroke="white" stroke-linecap="round"/>
</svg>
