<svg width="26" height="26" viewBox="0 0 26 26" fill="none" xmlns="http://www.w3.org/2000/svg">
<path d="M15.9829 3.13881C15.7602 3.14544 15.5489 3.23851 15.3936 3.39829L12.8976 5.89433C12.7929 5.9741 12.708 6.0769 12.6495 6.19477C12.5909 6.31264 12.5603 6.4424 12.56 6.57401C12.5596 6.70562 12.5896 6.83554 12.6476 6.95369C12.7056 7.07184 12.79 7.17506 12.8942 7.25535C12.8959 7.25647 12.8976 7.25759 12.8993 7.2587L15.3936 9.75306C15.4726 9.83532 15.5672 9.901 15.6719 9.94624C15.7766 9.99149 15.8892 10.0154 16.0033 10.0165C16.1173 10.0177 16.2304 9.99611 16.336 9.953C16.4416 9.9099 16.5375 9.84616 16.6181 9.76552C16.6988 9.68489 16.7625 9.58897 16.8056 9.48339C16.8487 9.37781 16.8703 9.26469 16.8691 9.15066C16.868 9.03663 16.8441 8.92397 16.7988 8.81929C16.7536 8.71461 16.6879 8.62001 16.6057 8.54104L15.4974 7.4328H18.571C19.5281 7.4328 20.2853 8.18993 20.2853 9.14705V12.5755C20.2837 12.6891 20.3046 12.8019 20.347 12.9073C20.3894 13.0127 20.4522 13.1086 20.532 13.1895C20.6117 13.2704 20.7068 13.3346 20.8116 13.3785C20.9163 13.4223 21.0288 13.4449 21.1424 13.4449C21.256 13.4449 21.3684 13.4223 21.4732 13.3785C21.578 13.3346 21.6731 13.2704 21.7528 13.1895C21.8326 13.1086 21.8954 13.0127 21.9378 12.9073C21.9801 12.8019 22.0011 12.6891 21.9995 12.5755V9.14705C21.9995 7.26366 20.4544 5.71855 18.571 5.71855H15.4974L16.6057 4.61032C16.7295 4.48992 16.8141 4.33492 16.8484 4.16562C16.8826 3.99632 16.8649 3.82062 16.7976 3.66155C16.7303 3.50248 16.6165 3.36746 16.4711 3.27418C16.3257 3.1809 16.1556 3.13372 15.9829 3.13881ZM7.20408 4.86478C7.09658 4.85587 6.98713 4.86478 6.87764 4.89156C6.4525 4.99527 5.90098 5.24713 5.32242 5.82569C3.51132 7.6368 2.55043 10.69 9.36028 17.5007C16.1701 24.3114 19.2233 23.3505 21.0353 21.5385C21.6155 20.9582 21.8673 20.406 21.9711 19.98C22.0765 19.5437 21.8881 19.0947 21.5006 18.8684C20.5338 18.3027 18.4472 17.0795 17.4795 16.513C17.1615 16.327 16.7713 16.3303 16.455 16.518L14.8546 17.4722C14.4963 17.6856 14.0487 17.6615 13.7196 17.4052C13.1513 16.9613 12.2374 16.2135 11.4412 15.4181C10.6449 14.6219 9.89716 13.708 9.45403 13.1397C9.19775 12.8114 9.17279 12.363 9.38707 12.0047L10.3413 10.4043C10.5299 10.088 10.5306 9.69439 10.3446 9.3764L7.99424 5.36365C7.82324 5.07308 7.52659 4.89149 7.20408 4.86478Z" fill="#027A48"/>
</svg>
