<svg width="21" height="22" viewBox="0 0 21 22" fill="none" xmlns="http://www.w3.org/2000/svg">
<path d="M5.22291 0.782654C3.54541 0.782654 2.16764 2.16043 2.16764 3.83792V4.11568H1.33438C1.22396 4.11411 1.11434 4.13451 1.01188 4.17569C0.909411 4.21686 0.816153 4.27799 0.737518 4.35552C0.658884 4.43305 0.596443 4.52544 0.553824 4.62731C0.511205 4.72918 0.489258 4.8385 0.489258 4.94893C0.489258 5.05936 0.511205 5.16868 0.553824 5.27056C0.596443 5.37243 0.658884 5.46481 0.737518 5.54234C0.816153 5.61987 0.909411 5.681 1.01188 5.72218C1.11434 5.76335 1.22396 5.78375 1.33438 5.78219H4.6674C4.77782 5.78375 4.88744 5.76335 4.98991 5.72218C5.09237 5.681 5.18563 5.61987 5.26427 5.54234C5.3429 5.46481 5.40534 5.37243 5.44796 5.27056C5.49058 5.16868 5.51253 5.05936 5.51253 4.94893C5.51253 4.8385 5.49058 4.72918 5.44796 4.62731C5.40534 4.52544 5.3429 4.43305 5.26427 4.35552C5.18563 4.27799 5.09237 4.21686 4.98991 4.17569C4.88744 4.13451 4.77782 4.11411 4.6674 4.11568H3.83415V3.83792C3.83415 3.0612 4.44619 2.44916 5.22291 2.44916H17.444C18.2207 2.44916 18.8327 3.0612 18.8327 3.83792V18.281C18.8327 19.0577 18.2207 19.6698 17.444 19.6698H5.22291C4.44619 19.6698 3.83415 19.0577 3.83415 18.281V17.4478H4.6674C4.77782 17.4493 4.88744 17.4289 4.98991 17.3878C5.09237 17.3466 5.18563 17.2854 5.26427 17.2079C5.3429 17.1304 5.40534 17.038 5.44796 16.9361C5.49058 16.8343 5.51253 16.7249 5.51253 16.6145C5.51253 16.5041 5.49058 16.3948 5.44796 16.2929C5.40534 16.191 5.3429 16.0986 5.26427 16.0211C5.18563 15.9436 5.09237 15.8824 4.98991 15.8413C4.88744 15.8001 4.77782 15.7797 4.6674 15.7813H3.83415V14.6702H2.16764V15.7813H1.33438C1.22396 15.7797 1.11434 15.8001 1.01188 15.8413C0.909411 15.8824 0.816153 15.9436 0.737518 16.0211C0.658884 16.0986 0.596443 16.191 0.553824 16.2929C0.511205 16.3948 0.489258 16.5041 0.489258 16.6145C0.489258 16.7249 0.511205 16.8343 0.553824 16.9361C0.596443 17.038 0.658884 17.1304 0.737518 17.2079C0.816153 17.2854 0.909411 17.3466 1.01188 17.3878C1.11434 17.4289 1.22396 17.4493 1.33438 17.4478H2.16764V18.281C2.16764 19.9585 3.54541 21.3363 5.22291 21.3363H17.444C19.1215 21.3363 20.4993 19.9585 20.4993 18.281V3.83792C20.4993 2.16043 19.1215 0.782654 17.444 0.782654H5.22291ZM10.179 4.67552C10.0068 4.66336 9.83035 4.68019 9.65717 4.72977L8.81198 4.97063C8.08983 5.17728 7.52421 5.73559 7.33534 6.42774C6.85927 8.17314 7.39541 10.3348 8.92916 12.8529C10.4607 15.3677 12.1645 16.8891 13.9938 17.3729C14.7243 17.5662 15.5215 17.3791 16.0726 16.8847L16.7149 16.3075C17.2393 15.837 17.3167 15.063 16.8939 14.5075L15.9652 13.288C15.6024 12.8114 14.9608 12.6069 14.3681 12.7791L12.9099 13.2012C12.5294 13.3084 12.1995 13.0301 12.0745 12.9256C11.7723 12.6718 11.4404 12.2497 11.0882 11.6714C10.3328 10.4304 10.388 9.96508 10.4058 9.81176C10.4252 9.64844 10.5053 9.49541 10.6326 9.3832L11.7164 8.42625C12.1697 8.02518 12.3039 7.39507 12.0495 6.85956L11.3953 5.48057C11.1724 5.01061 10.6957 4.712 10.179 4.67552ZM2.16764 6.89319V8.0042H1.33438C1.22396 8.00264 1.11434 8.02304 1.01188 8.06421C0.909411 8.10539 0.816153 8.16652 0.737518 8.24405C0.658884 8.32158 0.596443 8.41396 0.553824 8.51583C0.511205 8.6177 0.489258 8.72703 0.489258 8.83746C0.489258 8.94788 0.511205 9.05721 0.553824 9.15908C0.596443 9.26095 0.658884 9.35334 0.737518 9.43087C0.816153 9.5084 0.909411 9.56953 1.01188 9.6107C1.11434 9.65187 1.22396 9.67227 1.33438 9.67071H4.6674C4.77782 9.67227 4.88744 9.65187 4.98991 9.6107C5.09237 9.56953 5.18563 9.5084 5.26427 9.43087C5.3429 9.35334 5.40534 9.26095 5.44796 9.15908C5.49058 9.05721 5.51253 8.94788 5.51253 8.83746C5.51253 8.72703 5.49058 8.6177 5.44796 8.51583C5.40534 8.41396 5.3429 8.32158 5.26427 8.24405C5.18563 8.16652 5.09237 8.10539 4.98991 8.06421C4.88744 8.02304 4.77782 8.00264 4.6674 8.0042H3.83415V6.89319H2.16764ZM2.16764 10.7817V11.8927H1.33438C1.22396 11.8912 1.11434 11.9116 1.01188 11.9527C0.909411 11.9939 0.816153 12.055 0.737518 12.1326C0.658884 12.2101 0.596443 12.3025 0.553824 12.4044C0.511205 12.5062 0.489258 12.6156 0.489258 12.726C0.489258 12.8364 0.511205 12.9457 0.553824 13.0476C0.596443 13.1495 0.658884 13.2419 0.737518 13.3194C0.816153 13.3969 0.909411 13.4581 1.01188 13.4992C1.11434 13.5404 1.22396 13.5608 1.33438 13.5592H4.6674C4.77782 13.5608 4.88744 13.5404 4.98991 13.4992C5.09237 13.4581 5.18563 13.3969 5.26427 13.3194C5.3429 13.2419 5.40534 13.1495 5.44796 13.0476C5.49058 12.9457 5.51253 12.8364 5.51253 12.726C5.51253 12.6156 5.49058 12.5062 5.44796 12.4044C5.40534 12.3025 5.3429 12.2101 5.26427 12.1326C5.18563 12.055 5.09237 11.9939 4.98991 11.9527C4.88744 11.9116 4.77782 11.8912 4.6674 11.8927H3.83415V10.7817H2.16764Z" fill="#A4BCFD"/>
</svg>
