<svg width="25" height="25" viewBox="0 0 25 25" fill="none" xmlns="http://www.w3.org/2000/svg">
<path d="M18.6861 16.1029C18.25 15.8473 17.7141 15.8527 17.2802 16.1104L15.0826 17.4197C14.5907 17.713 13.9763 17.6786 13.5252 17.3263C12.7454 16.7173 11.4898 15.6926 10.3975 14.6003C9.30515 13.508 8.28049 12.2524 7.67149 11.4726C7.31919 11.0215 7.28482 10.4071 7.57804 9.91519L8.88734 7.71763C9.14619 7.28371 9.14834 6.74345 8.89271 6.30737L5.66834 0.799523C5.35578 0.266782 4.73497 0.00470805 4.13456 0.151856C3.55134 0.293634 2.79412 0.639486 2.00037 1.4343C-0.485033 3.91971 -1.80507 8.11182 7.54152 17.4584C16.8881 26.805 21.0792 25.486 23.5656 22.9996C24.3615 22.2037 24.7063 21.4454 24.8492 20.8611C24.9942 20.2617 24.7364 19.6452 24.2047 19.3337C22.8772 18.5572 20.0137 16.8806 18.6861 16.1029Z" fill="white"/>
</svg>
