<svg width="26" height="26" viewBox="0 0 26 26" fill="none" xmlns="http://www.w3.org/2000/svg">
<path d="M19.9164 3.45822C19.8841 3.45924 19.8519 3.46206 19.8199 3.46668H15.644C15.5292 3.46506 15.4151 3.48627 15.3086 3.5291C15.202 3.57192 15.105 3.6355 15.0232 3.71614C14.9414 3.79678 14.8765 3.89287 14.8322 3.99883C14.7878 4.10478 14.765 4.21849 14.765 4.33335C14.765 4.4482 14.7878 4.56191 14.8322 4.66787C14.8765 4.77382 14.9414 4.86991 15.0232 4.95055C15.105 5.03119 15.202 5.09477 15.3086 5.13759C15.4151 5.18042 15.5292 5.20164 15.644 5.20001H17.8412L13 10.0412L7.5461 4.58725C7.46624 4.50408 7.37059 4.43767 7.26474 4.39192C7.1589 4.34618 7.04499 4.32201 6.92969 4.32084C6.81439 4.31967 6.70001 4.34151 6.59326 4.3851C6.4865 4.42868 6.38952 4.49313 6.30798 4.57466C6.22645 4.65619 6.162 4.75318 6.11842 4.85993C6.07484 4.96668 6.05299 5.08106 6.05416 5.19636C6.05534 5.31166 6.0795 5.42557 6.12525 5.53142C6.171 5.63726 6.2374 5.73291 6.32058 5.81277L12.3872 11.8794C12.5498 12.0419 12.7702 12.1332 13 12.1332C13.2298 12.1332 13.4502 12.0419 13.6128 11.8794L19.0667 6.42553V8.62267C19.065 8.73751 19.0863 8.85153 19.1291 8.95811C19.1719 9.06468 19.2355 9.16168 19.3161 9.24346C19.3968 9.32525 19.4929 9.3902 19.5988 9.43452C19.7048 9.47885 19.8185 9.50168 19.9333 9.50168C20.0482 9.50168 20.1619 9.47885 20.2679 9.43452C20.3738 9.3902 20.4699 9.32525 20.5505 9.24346C20.6312 9.16168 20.6948 9.06468 20.7376 8.95811C20.7804 8.85153 20.8016 8.73751 20.8 8.62267V4.44337C20.8173 4.31859 20.8071 4.19155 20.7703 4.0711C20.7334 3.95064 20.6708 3.83966 20.5867 3.74588C20.5026 3.65211 20.399 3.5778 20.2833 3.52811C20.1675 3.47843 20.0423 3.45458 19.9164 3.45822ZM13.0017 13.8667C3.2361 13.8667 1.73334 16.7461 1.73334 19.3426C1.73334 20.1746 1.94968 20.7513 2.18021 21.1318C2.41768 21.5209 2.87406 21.7075 3.31433 21.5922C4.41413 21.3045 6.78653 20.684 7.88633 20.3971C8.24773 20.3027 8.52402 20.0205 8.61589 19.6591L9.07969 17.8259C9.18369 17.416 9.52351 17.1136 9.94297 17.0625C10.6684 16.9732 11.8603 16.8526 13.0017 16.8526C14.1431 16.8526 15.3325 16.9732 16.0587 17.0625C16.4782 17.1145 16.818 17.416 16.922 17.8259L17.3858 19.6591C17.4777 20.0214 17.7574 20.3035 18.1188 20.3971L22.6823 21.5905C23.1243 21.7058 23.5849 21.5184 23.8215 21.1284C24.0512 20.7497 24.2667 20.172 24.2667 19.3426C24.2667 16.7461 22.7673 13.8667 13.0017 13.8667Z" fill="#FEC84B"/>
</svg>
