<svg width="23" height="21" viewBox="0 0 23 21" fill="none" xmlns="http://www.w3.org/2000/svg">
<path d="M4.99973 0.782654C4.14329 0.782654 3.39545 1.13382 2.91868 1.67019C2.4419 2.20657 2.2221 2.88902 2.2221 3.56028C2.2221 4.23154 2.4419 4.914 2.91868 5.45037C3.39545 5.98674 4.14329 6.33791 4.99973 6.33791C5.85616 6.33791 6.604 5.98674 7.08078 5.45037C7.55755 4.914 7.77736 4.23154 7.77736 3.56028C7.77736 2.88902 7.55755 2.20657 7.08078 1.67019C6.604 1.13382 5.85616 0.782654 4.99973 0.782654ZM17.2213 0.782654C16.3649 0.782654 15.617 1.13382 15.1402 1.67019C14.6635 2.20657 14.4437 2.88902 14.4437 3.56028C14.4437 4.23154 14.6635 4.914 15.1402 5.45037C15.617 5.98674 16.3649 6.33791 17.2213 6.33791C18.0777 6.33791 18.8256 5.98674 19.3023 5.45037C19.7791 4.914 19.9989 4.23154 19.9989 3.56028C19.9989 2.88902 19.7791 2.20657 19.3023 1.67019C18.8256 1.13382 18.0777 0.782654 17.2213 0.782654ZM4.99973 2.44923C5.43952 2.44923 5.66385 2.58415 5.83519 2.7769C6.00652 2.96966 6.11078 3.25937 6.11078 3.56028C6.11078 3.86119 6.00652 4.1509 5.83519 4.34366C5.66385 4.53641 5.43952 4.67133 4.99973 4.67133C4.55994 4.67133 4.33561 4.53641 4.16427 4.34366C3.99293 4.1509 3.88868 3.86119 3.88868 3.56028C3.88868 3.25937 3.99293 2.96966 4.16427 2.7769C4.33561 2.58415 4.55994 2.44923 4.99973 2.44923ZM17.2213 2.44923C17.6611 2.44923 17.8854 2.58415 18.0567 2.7769C18.2281 2.96966 18.3323 3.25937 18.3323 3.56028C18.3323 3.86119 18.2281 4.1509 18.0567 4.34366C17.8854 4.53641 17.6611 4.67133 17.2213 4.67133C16.7815 4.67133 16.5572 4.53641 16.3858 4.34366C16.2145 4.1509 16.1102 3.86119 16.1102 3.56028C16.1102 3.25937 16.2145 2.96966 16.3858 2.7769C16.5572 2.58415 16.7815 2.44923 17.2213 2.44923ZM11.1105 4.67133C10.2541 4.67133 9.50623 5.0225 9.02946 5.55887C8.55268 6.09524 8.33288 6.7777 8.33288 7.44896C8.33288 8.12022 8.55268 8.80267 9.02946 9.33905C9.50623 9.87542 10.2541 10.2266 11.1105 10.2266C11.9669 10.2266 12.7148 9.87542 13.1916 9.33905C13.6683 8.80267 13.8881 8.12022 13.8881 7.44896C13.8881 6.7777 13.6683 6.09524 13.1916 5.55887C12.7148 5.0225 11.9669 4.67133 11.1105 4.67133ZM11.1105 6.33791C11.5503 6.33791 11.7746 6.47283 11.946 6.66558C12.1173 6.85834 12.2216 7.14805 12.2216 7.44896C12.2216 7.74987 12.1173 8.03958 11.946 8.23234C11.7746 8.42509 11.5503 8.56001 11.1105 8.56001C10.6707 8.56001 10.4464 8.42509 10.2751 8.23234C10.1037 8.03958 9.99946 7.74987 9.99946 7.44896C9.99946 7.14805 10.1037 6.85834 10.2751 6.66558C10.4464 6.47283 10.6707 6.33791 11.1105 6.33791ZM4.99973 8.56001C4.14329 8.56001 3.39545 8.91118 2.91868 9.44755C2.4419 9.98392 2.2221 10.6664 2.2221 11.3376C2.2221 12.0089 2.4419 12.6914 2.91868 13.2277C3.39545 13.7641 4.14329 14.1153 4.99973 14.1153C5.85616 14.1153 6.604 13.7641 7.08078 13.2277C7.55755 12.6914 7.77736 12.0089 7.77736 11.3376C7.77736 10.6664 7.55755 9.98392 7.08078 9.44755C6.604 8.91118 5.85616 8.56001 4.99973 8.56001ZM17.2213 8.56001C16.3649 8.56001 15.617 8.91118 15.1402 9.44755C14.6635 9.98392 14.4437 10.6664 14.4437 11.3376C14.4437 12.0089 14.6635 12.6914 15.1402 13.2277C15.617 13.7641 16.3649 14.1153 17.2213 14.1153C18.0777 14.1153 18.8256 13.7641 19.3023 13.2277C19.7791 12.6914 19.9989 12.0089 19.9989 11.3376C19.9989 10.6664 19.7791 9.98392 19.3023 9.44755C18.8256 8.91118 18.0777 8.56001 17.2213 8.56001ZM4.99973 10.2266C5.43952 10.2266 5.66385 10.3615 5.83519 10.5543C6.00652 10.747 6.11078 11.0367 6.11078 11.3376C6.11078 11.6385 6.00652 11.9283 5.83519 12.121C5.66385 12.3138 5.43952 12.4487 4.99973 12.4487C4.55994 12.4487 4.33561 12.3138 4.16427 12.121C3.99293 11.9283 3.88868 11.6385 3.88868 11.3376C3.88868 11.0367 3.99293 10.747 4.16427 10.5543C4.33561 10.3615 4.55994 10.2266 4.99973 10.2266ZM17.2213 10.2266C17.6611 10.2266 17.8854 10.3615 18.0567 10.5543C18.2281 10.747 18.3323 11.0367 18.3323 11.3376C18.3323 11.6385 18.2281 11.9283 18.0567 12.121C17.8854 12.3138 17.6611 12.4487 17.2213 12.4487C16.7815 12.4487 16.5572 12.3138 16.3858 12.121C16.2145 11.9283 16.1102 11.6385 16.1102 11.3376C16.1102 11.0367 16.2145 10.747 16.3858 10.5543C16.5572 10.3615 16.7815 10.2266 17.2213 10.2266ZM1.69587 15.2263C0.769273 15.2263 0 15.9956 0 16.9222V17.4202C0 18.4362 0.641579 19.3111 1.53855 19.8832C2.43551 20.4553 3.62551 20.7827 4.99973 20.7827C6.37388 20.7827 7.56282 20.4552 8.45983 19.8832C9.35683 19.3111 9.99946 18.4363 9.99946 17.4202V16.9222C9.99946 15.9956 9.23018 15.2263 8.30359 15.2263H1.69587ZM13.9174 15.2263C12.9908 15.2263 12.2216 15.9956 12.2216 16.9222V17.4202C12.2216 18.4362 12.8631 19.3111 13.7601 19.8832C14.6571 20.4553 15.8471 20.7827 17.2213 20.7827C18.5954 20.7827 19.7844 20.4552 20.6814 19.8832C21.5784 19.3111 22.221 18.4363 22.221 17.4202V16.9222C22.221 15.9956 21.4517 15.2263 20.5251 15.2263H13.9174ZM1.69587 16.8929H8.30359C8.32916 16.8929 8.33288 16.8966 8.33288 16.9222V17.4202C8.33288 17.7279 8.13136 18.1167 7.56469 18.4781C6.99803 18.8395 6.10378 19.1161 4.99973 19.1161C3.89574 19.1161 3.00147 18.8395 2.43476 18.4781C1.86806 18.1166 1.66658 17.7275 1.66658 17.4202V16.9222C1.66658 16.8966 1.6703 16.8929 1.69587 16.8929ZM13.9174 16.8929H20.5251C20.5507 16.8929 20.5544 16.8966 20.5544 16.9222V17.4202C20.5544 17.7279 20.3529 18.1167 19.7863 18.4781C19.2196 18.8395 18.3253 19.1161 17.2213 19.1161C16.1173 19.1161 15.223 18.8395 14.6563 18.4781C14.0896 18.1166 13.8881 17.7275 13.8881 17.4202V16.9222C13.8881 16.8966 13.8919 16.8929 13.9174 16.8929Z" fill="white"/>
</svg>
