<svg width="19" height="21" viewBox="0 0 19 21" fill="none" xmlns="http://www.w3.org/2000/svg">
<path d="M5.25641 0.282654C3.23362 0.282654 1.57692 1.93936 1.57692 3.96214C1.57692 5.98493 3.23362 7.64163 5.25641 7.64163C7.2792 7.64163 8.9359 5.98493 8.9359 3.96214C8.9359 1.93936 7.2792 0.282654 5.25641 0.282654ZM13.6667 0.282654C11.6439 0.282654 9.98718 1.93936 9.98718 3.96214C9.98718 5.98493 11.6439 7.64163 13.6667 7.64163C15.6895 7.64163 17.3462 5.98493 17.3462 3.96214C17.3462 1.93936 15.6895 0.282654 13.6667 0.282654ZM5.25641 1.85958C6.42696 1.85958 7.35897 2.79159 7.35897 3.96214C7.35897 5.13269 6.42696 6.0647 5.25641 6.0647C4.08586 6.0647 3.15385 5.13269 3.15385 3.96214C3.15385 2.79159 4.08586 1.85958 5.25641 1.85958ZM13.6667 1.85958C14.8372 1.85958 15.7692 2.79159 15.7692 3.96214C15.7692 5.13269 14.8372 6.0647 13.6667 6.0647C12.4961 6.0647 11.5641 5.13269 11.5641 3.96214C11.5641 2.79159 12.4961 1.85958 13.6667 1.85958ZM1.83974 8.69291C0.825256 8.69291 0 9.51817 0 10.5327V15.5262C0 18.4246 2.35803 20.7827 5.25641 20.7827C6.59259 20.7827 7.8105 20.2779 8.73878 19.4532C8.40447 19.0342 8.12231 18.5721 7.90207 18.0764C7.2324 18.7713 6.29508 19.2057 5.25641 19.2057C3.22744 19.2057 1.57692 17.5552 1.57692 15.5262V10.5327C1.57692 10.3876 1.69467 10.2698 1.83974 10.2698H7.37232C7.42646 9.67428 7.66004 9.12972 8.02116 8.69291H1.83974ZM10.25 8.69291C9.24342 8.69291 8.41026 9.52607 8.41026 10.5327V15.5262C8.41026 18.4198 10.7731 20.7827 13.6667 20.7827C16.5602 20.7827 18.9231 18.4198 18.9231 15.5262V10.5327C18.9231 9.52607 18.0899 8.69291 17.0833 8.69291H10.25ZM10.25 10.2698H17.0833C17.2384 10.2698 17.3462 10.3776 17.3462 10.5327V15.5262C17.3462 17.5674 15.7078 19.2057 13.6667 19.2057C11.6255 19.2057 9.98718 17.5674 9.98718 15.5262V10.5327C9.98718 10.3776 10.0949 10.2698 10.25 10.2698Z" fill="#A4BCFD"/>
</svg>
