<svg width="18" height="18" viewBox="0 0 18 18" fill="none" xmlns="http://www.w3.org/2000/svg">
<path d="M8.24994 1.5C7.83594 1.5 7.49994 1.836 7.49994 2.25V8.25H4.87494C4.77548 8.25 4.6801 8.28951 4.60977 8.35983C4.53945 8.43016 4.49994 8.52554 4.49994 8.625C4.49995 8.72445 4.53947 8.81982 4.6098 8.89014C4.6173 8.89779 4.62512 8.90512 4.63324 8.91211L8.46234 12.5229L8.48724 12.5464C8.62607 12.6769 8.80938 12.7497 8.99994 12.75C9.1905 12.7497 9.37381 12.6769 9.51263 12.5464L9.52289 12.5376C9.52535 12.5347 9.52779 12.5318 9.53021 12.5288L13.3578 8.91943C13.3654 8.91289 13.3728 8.90605 13.3798 8.89892L13.3857 8.89453C13.3872 8.89308 13.3886 8.89161 13.3901 8.89014C13.4604 8.81982 13.4999 8.72445 13.4999 8.625C13.4999 8.52554 13.4604 8.43016 13.3901 8.35983C13.3198 8.28951 13.2244 8.25 13.1249 8.25H10.4999V2.25C10.4999 1.836 10.1639 1.5 9.74994 1.5H8.99994H8.24994ZM2.24994 15C2.15056 14.9986 2.05188 15.017 1.95966 15.054C1.86743 15.0911 1.78349 15.1461 1.71271 15.2159C1.64194 15.2857 1.58573 15.3688 1.54737 15.4605C1.50901 15.5522 1.48926 15.6506 1.48926 15.75C1.48926 15.8494 1.50901 15.9478 1.54737 16.0395C1.58573 16.1312 1.64194 16.2143 1.71271 16.2841C1.78349 16.3539 1.86743 16.4089 1.95966 16.446C2.05188 16.483 2.15056 16.5014 2.24994 16.5H15.7499C15.8493 16.5014 15.948 16.483 16.0402 16.446C16.1324 16.4089 16.2164 16.3539 16.2872 16.2841C16.3579 16.2143 16.4141 16.1312 16.4525 16.0395C16.4909 15.9478 16.5106 15.8494 16.5106 15.75C16.5106 15.6506 16.4909 15.5522 16.4525 15.4605C16.4141 15.3688 16.3579 15.2857 16.2872 15.2159C16.2164 15.1461 16.1324 15.0911 16.0402 15.054C15.948 15.017 15.8493 14.9986 15.7499 15H2.24994Z" fill="#8098F9"/>
</svg>
