<svg width="26" height="26" viewBox="0 0 26 26" fill="none" xmlns="http://www.w3.org/2000/svg">
<path d="M13.0017 4.33334C3.2361 4.33334 1.73334 7.21272 1.73334 9.80926C1.73334 10.6413 1.94968 11.218 2.18021 11.5984C2.41768 11.9876 2.87406 12.1741 3.31433 12.0589C4.41413 11.7711 6.78653 11.1507 7.88633 10.8638C8.24773 10.7693 8.52402 10.4872 8.61589 10.1258L9.07969 8.29259C9.18369 7.88265 9.52351 7.58031 9.94297 7.52918C10.6684 7.43991 11.8603 7.31928 13.0017 7.31928C14.1431 7.31928 15.3325 7.43991 16.0587 7.52918C16.4782 7.58118 16.818 7.88265 16.922 8.29259L17.3858 10.1258C17.4777 10.4881 17.7574 10.7702 18.1188 10.8638L22.6823 12.0572C23.1243 12.1724 23.5849 11.9851 23.8215 11.5951C24.0512 11.2163 24.2667 10.6387 24.2667 9.80926C24.2667 7.21272 22.7673 4.33334 13.0017 4.33334ZM12.9865 11.2548C12.7569 11.2584 12.5381 11.3529 12.3782 11.5176C12.2183 11.6823 12.1302 11.9038 12.1333 12.1333V20.2922L10.5794 18.7383C10.4987 18.6553 10.4021 18.5893 10.2954 18.5442C10.1887 18.4991 10.074 18.4759 9.95821 18.4759C9.7858 18.476 9.61732 18.5274 9.47431 18.6237C9.3313 18.72 9.22026 18.8568 9.15539 19.0165C9.09051 19.1763 9.07475 19.3517 9.11011 19.5205C9.14547 19.6892 9.23036 19.8436 9.35391 19.9638L12.3872 22.9971C12.5498 23.1596 12.7702 23.2509 13 23.2509C13.2298 23.2509 13.4502 23.1596 13.6128 22.9971L16.6461 19.9638C16.7293 19.884 16.7957 19.7883 16.8414 19.6825C16.8872 19.5766 16.9113 19.4627 16.9125 19.3474C16.9137 19.2321 16.8918 19.1177 16.8483 19.011C16.8047 18.9042 16.7402 18.8072 16.6587 18.7257C16.5772 18.6442 16.4802 18.5797 16.3734 18.5361C16.2667 18.4925 16.1523 18.4707 16.037 18.4719C15.9217 18.473 15.8078 18.4972 15.7019 18.543C15.5961 18.5887 15.5004 18.6551 15.4206 18.7383L13.8667 20.2922V12.1333C13.8683 12.0174 13.8466 11.9023 13.8029 11.7949C13.7592 11.6875 13.6944 11.5899 13.6123 11.508C13.5302 11.4261 13.4325 11.3615 13.325 11.318C13.2175 11.2745 13.1024 11.253 12.9865 11.2548Z" fill="#FF6060"/>
</svg>
