<svg width="20" height="21" viewBox="0 0 20 21" fill="none" xmlns="http://www.w3.org/2000/svg">
<path d="M6 15.7827H14M9.0177 1.54667L2.23539 6.82179C1.78202 7.17441 1.55534 7.35072 1.39203 7.57153C1.24737 7.76711 1.1396 7.98745 1.07403 8.22172C1 8.48619 1 8.77337 1 9.34772V16.5827C1 17.7028 1 18.2628 1.21799 18.6906C1.40973 19.067 1.71569 19.3729 2.09202 19.5647C2.51984 19.7827 3.07989 19.7827 4.2 19.7827H15.8C16.9201 19.7827 17.4802 19.7827 17.908 19.5647C18.2843 19.3729 18.5903 19.067 18.782 18.6906C19 18.2628 19 17.7028 19 16.5827V9.34772C19 8.77337 19 8.48619 18.926 8.22172C18.8604 7.98745 18.7526 7.76711 18.608 7.57153C18.4447 7.35072 18.218 7.17441 17.7646 6.82179L10.9823 1.54667C10.631 1.27342 10.4553 1.13679 10.2613 1.08427C10.0902 1.03793 9.9098 1.03793 9.73865 1.08427C9.54468 1.13679 9.36902 1.27341 9.0177 1.54667Z" stroke="#A4BCFD" stroke-width="2" stroke-linecap="round" stroke-linejoin="round"/>
</svg>
