<svg width="200" height="201" viewBox="0 0 200 201" fill="none" xmlns="http://www.w3.org/2000/svg">
<circle cx="100" cy="100.926" r="100" fill="#F3FFFA"/>
<circle cx="100" cy="101.027" r="63.6364" fill="#B2F5D6"/>
<path d="M105.833 79.4232C105.345 79.4377 104.882 79.6416 104.542 79.9915L99.075 85.4587C98.8458 85.6334 98.6598 85.8586 98.5315 86.1167C98.4033 86.3749 98.3362 86.6591 98.3355 86.9474C98.3348 87.2356 98.4005 87.5202 98.5275 87.779C98.6544 88.0378 98.8393 88.2639 99.0677 88.4397C99.0714 88.4422 99.075 88.4446 99.0787 88.4471L104.542 93.9105C104.715 94.0907 104.922 94.2346 105.152 94.3337C105.381 94.4328 105.628 94.4851 105.877 94.4876C106.127 94.4902 106.375 94.4429 106.606 94.3485C106.837 94.254 107.048 94.1144 107.224 93.9378C107.401 93.7612 107.54 93.5511 107.635 93.3199C107.729 93.0886 107.777 92.8408 107.774 92.5911C107.771 92.3413 107.719 92.0946 107.62 91.8653C107.521 91.636 107.377 91.4288 107.197 91.2558L104.769 88.8284H111.502C113.598 88.8284 115.256 90.4868 115.256 92.5832V100.093C115.253 100.341 115.299 100.588 115.392 100.819C115.484 101.05 115.622 101.26 115.797 101.437C115.971 101.615 116.18 101.755 116.409 101.851C116.639 101.947 116.885 101.997 117.134 101.997C117.383 101.997 117.629 101.947 117.858 101.851C118.088 101.755 118.296 101.615 118.471 101.437C118.645 101.26 118.783 101.05 118.876 100.819C118.969 100.588 119.015 100.341 119.011 100.093V92.5832C119.011 88.4579 115.627 85.0736 111.502 85.0736H104.769L107.197 82.6463C107.468 82.3826 107.653 82.043 107.728 81.6722C107.804 81.3014 107.765 80.9166 107.617 80.5682C107.47 80.2197 107.221 79.924 106.902 79.7197C106.584 79.5154 106.211 79.412 105.833 79.4232ZM86.6044 83.2036C86.3689 83.1841 86.1292 83.2036 85.8894 83.2623C84.9582 83.4894 83.7502 84.0411 82.483 85.3083C78.5161 89.2752 76.4114 95.9626 91.3272 110.88C106.243 125.798 112.93 123.693 116.899 119.724C118.17 118.453 118.722 117.244 118.949 116.311C119.18 115.355 118.767 114.372 117.918 113.876C115.801 112.637 111.23 109.958 109.111 108.717C108.414 108.309 107.56 108.317 106.867 108.728L103.361 110.818C102.577 111.285 101.596 111.233 100.875 110.671C99.6307 109.699 97.629 108.061 95.885 106.319C94.1409 104.575 92.5031 102.573 91.5325 101.328C90.9712 100.609 90.9165 99.6271 91.3858 98.8423L93.4759 95.3369C93.8889 94.6441 93.8906 93.782 93.4832 93.0855L88.3351 84.2963C87.9606 83.6599 87.3108 83.2621 86.6044 83.2036Z" fill="#027A48"/>
</svg>
