<svg width="200" height="35" viewBox="0 0 200 35" fill="none" xmlns="http://www.w3.org/2000/svg">
<path d="M14.5689 0.109788C15.1119 -0.26256 15.4688 0.497614 15.717 0.870048C13.1569 3.50779 10.5037 6.05239 7.92807 8.69004C7.41607 9.18657 7.78842 10.2107 8.50216 10.2417C9.01416 10.3037 9.35555 9.83822 9.69685 9.54344C12.6449 6.59544 15.6084 3.66292 18.5255 0.683875C18.7892 0.451179 19.0529 0.218397 19.3478 0.047701C20.0305 -0.138386 20.496 0.885614 19.9374 1.289C16.5083 4.78005 13.0328 8.24013 9.5572 11.7157C9.26242 12.026 8.93659 12.3208 8.71938 12.6932C8.39355 13.3759 9.20033 14.1827 9.88311 13.9189C10.3175 13.7017 10.5968 13.2827 10.9536 12.9569C14.9878 9.07796 18.8047 4.98179 22.8699 1.13387C23.3664 0.668396 24.1888 1.42866 23.8939 1.98718C23.6147 2.39066 23.2422 2.70092 22.9164 3.05779C17.7031 8.25561 12.4897 13.4845 7.26085 18.6979C6.93503 19.0392 6.51616 19.3495 6.37651 19.8305C6.17477 20.4821 6.8885 21.2114 7.54016 20.9786C8.00564 20.839 8.31598 20.4201 8.65729 20.0942C14.3362 14.4 20.0305 8.72109 25.7248 3.02674C26.0041 2.763 26.4541 2.45266 26.8264 2.74753C27.2143 2.9957 27.2143 3.55431 26.8885 3.86466C25.7093 5.21448 24.3439 6.3937 23.1026 7.68152C18.3702 12.4294 13.6069 17.1308 8.92111 21.9096C8.51764 22.3286 7.88155 22.7165 8.00564 23.3836C8.05216 23.9112 8.56424 24.1439 8.99868 24.2835C9.78998 23.9422 10.333 23.2595 10.9382 22.6699C12.769 20.87 14.5068 18.9926 16.3687 17.2238C20.3097 13.3293 24.2042 9.37274 28.1298 5.4317C28.409 5.15248 28.7349 4.79561 29.1694 4.84213C29.4796 4.84213 29.6969 5.15248 29.821 5.40074C29.9141 5.78857 29.5883 6.099 29.3556 6.34718L11.0468 24.6559C10.7364 25.0128 10.2399 25.4473 10.4727 25.9593C10.6123 26.673 11.6519 26.9057 12.1329 26.3626C18.2306 20.2494 24.3439 14.1517 30.4416 8.03839C30.6899 7.79013 30.9692 7.54187 31.3261 7.49535C31.6674 7.52639 32.0088 7.79013 31.9777 8.16257C32.0088 8.55039 31.6984 8.8297 31.4657 9.07796C25.7558 14.7258 20.1081 20.3891 14.4758 26.0679C14.15 26.4247 13.6689 26.7351 13.6535 27.2626C13.5603 27.8833 14.243 28.4728 14.8482 28.2712C15.2826 28.1315 15.5463 27.7591 15.8567 27.4643C21.4424 21.9252 26.9506 16.3084 32.5673 10.8002C33.0638 10.4123 33.8396 11.033 33.6224 11.6071C33.4363 11.964 33.1103 12.1967 32.8622 12.4914C28.9056 16.4946 24.8715 20.4201 20.9459 24.4542C20.1391 25.1214 21.3649 26.4713 22.1251 25.8196C26.0041 22.1424 29.6503 18.2324 33.5138 14.5396C34.1034 14.0896 35.0033 15.0671 34.4137 15.5792C31.1864 18.9306 27.8195 22.1424 24.5922 25.4938C24.0025 25.9593 24.4215 26.9833 25.1352 27.0299C25.5386 27.1074 25.8644 26.8126 26.1282 26.5644C28.4556 24.237 30.7675 21.8941 33.1103 19.5978C33.3586 19.3806 33.5914 19.0081 33.9793 19.1013C34.4603 19.1478 34.8636 19.784 34.4758 20.1873C32.738 22.1733 30.7209 23.8957 28.9211 25.8196C28.6573 26.1144 28.2694 26.3937 28.2539 26.8281C28.3004 27.3092 28.6418 27.7591 29.1538 27.8057C29.8986 27.635 30.333 26.9367 31.0157 26.6575C31.4191 26.7506 31.776 27.1385 31.6984 27.5574C31.1089 28.4263 30.302 29.1245 29.5417 29.8382C26.2989 33.0035 21.7372 34.7413 17.2066 34.6481C13.3742 34.6326 9.60381 33.2518 6.6092 30.8778C3.38198 28.3487 1.11659 24.6404 0.340765 20.6218C-0.388453 17.0376 0.0459819 13.2362 1.55103 9.90031C2.74581 7.29361 4.60764 5.02831 6.76442 3.1664C6.95051 2.96466 7.24529 2.87161 7.49364 3.01126C7.75737 3.213 7.91251 3.52326 8.0832 3.80257C7.61772 4.29909 7.07468 4.76457 6.79537 5.40074C6.62477 6.14544 7.72633 6.8437 8.28494 6.23857C10.4572 4.26805 12.3501 2.01822 14.5689 0.109788V0.109788ZM46.1439 12.1655C48.0523 11.7621 50.1625 11.9328 51.8693 12.9568C53.4984 13.9344 54.7397 15.5946 55.081 17.472C55.3449 18.9615 55.2983 20.5441 54.7397 21.9716C53.9174 24.0507 52.009 25.6644 49.8212 26.1143C47.9903 26.4867 46.0043 26.3316 44.3596 25.4161C42.6063 24.4541 41.3185 22.7164 40.9616 20.7459C40.6358 18.977 40.822 17.0531 41.7219 15.4705C42.6373 13.8258 44.282 12.5845 46.1439 12.1655V12.1655ZM47.0283 14.7412C45.5077 15.0515 44.313 16.3704 43.9872 17.8599C43.6614 19.427 43.8941 21.2113 45.0268 22.406C46.5318 24.0973 49.4798 24.0818 51.0004 22.4215C52.7382 20.5286 52.6141 17.1151 50.5659 15.486C49.5884 14.6947 48.2386 14.4774 47.0283 14.7412V14.7412ZM56.8497 12.2282C57.8117 12.2127 58.7892 12.2127 59.7512 12.2127C59.9684 12.1661 60.0616 12.3988 60.1857 12.523C62.2028 15.2848 64.2353 18.0466 66.2835 20.793V12.2127H69.278V26.0063C68.316 26.0218 67.354 26.0063 66.3765 26.0063C64.2044 23.0427 62.0476 20.0482 59.8598 17.1001C59.8288 20.0637 59.8598 23.0427 59.8443 26.0063H56.8497C56.8497 21.4291 56.8653 16.8364 56.8497 12.2282V12.2282ZM71.5279 12.2278H81.3495V14.8345H74.5225V17.7515H81.1944V20.3426H74.5225V23.4458H81.3495V26.0525H71.5279V12.2278ZM144.98 26.0217C146.765 21.4134 148.533 16.8207 150.318 12.2126H154.057C155.824 16.8182 157.598 21.4213 159.379 26.0217H155.965C155.685 25.2459 155.406 24.4701 155.112 23.6943H149.246C148.967 24.4701 148.657 25.2304 148.409 26.0062C147.26 26.0527 146.128 26.0217 144.98 26.0217ZM152.179 15.2692C151.481 17.2242 150.752 19.1637 150.069 21.1186C151.481 21.1032 152.893 21.1186 154.305 21.1186C153.576 19.1637 152.908 17.1932 152.179 15.2692V15.2692ZM162.249 12.2274C163.273 12.2274 164.312 12.212 165.337 12.243C167.432 15.1134 169.542 17.9683 171.667 20.8233C171.683 17.9528 171.667 15.0979 171.667 12.2274H174.662V26.0366H171.745C169.572 23.0575 167.416 20.094 165.228 17.1305V26.0366H162.233C162.249 21.4284 162.249 16.8201 162.249 12.2274ZM177.966 12.2278H187.741V14.8345H180.914V17.736H187.632V20.3271H180.93V23.4303H187.757V26.037H177.982C177.966 21.4287 177.966 16.8206 177.966 12.2278ZM188.936 12.2278H199.999V14.8345H195.965V26.037H192.971V14.8345C191.62 14.819 190.286 14.8345 188.936 14.8345V12.2278ZM134.832 12.3365H137.78V23.5545H143.645V26.1457H134.848C134.817 21.5374 134.832 16.9447 134.832 12.3365Z" fill="#4DA1FF"/>
<path d="M101.086 12.2424C102.591 11.9166 104.19 11.9476 105.648 12.4442C107.882 13.2044 109.651 15.206 110.085 17.5334C110.427 19.3487 110.256 21.3192 109.31 22.9329C108.378 24.5 106.827 25.6947 105.043 26.1137C103.397 26.5016 101.614 26.4395 100.031 25.8034C97.9671 24.9344 96.3384 23.0105 95.9505 20.7917C95.6862 19.2711 95.7792 17.642 96.3845 16.1989C97.2227 14.244 99.0227 12.7235 101.086 12.2424ZM101.846 14.8491C101.365 14.9888 100.9 15.206 100.512 15.5163C98.4636 17.1299 98.3244 20.5124 100.016 22.4364C101.536 24.2052 104.639 24.1587 106.129 22.3588C107.773 20.4193 107.587 17.0679 105.524 15.5008C104.499 14.6939 103.088 14.5233 101.846 14.8491ZM81.707 12.2882C82.8397 12.2882 83.9878 12.2727 85.1204 12.3037C86.3635 15.7997 87.6202 19.2908 88.8905 22.777C90.2253 19.3169 91.4201 15.7948 92.6923 12.2882H96.1053C94.3366 16.8964 92.5679 21.4891 90.7992 26.0973H87.0601C85.2601 21.4891 83.4758 16.8809 81.707 12.2882ZM111.901 12.2885H114.895V26.0822C113.902 26.0977 112.893 26.0822 111.901 26.0977V12.2885ZM120.714 7.05938C120.823 6.98181 120.9 7.13694 120.962 7.21451C120.419 7.77311 119.844 8.31625 119.302 8.89025C119.193 8.99886 119.271 9.21607 119.426 9.21607C119.535 9.23164 119.612 9.12303 119.69 9.06094C120.311 8.42477 120.946 7.80416 121.567 7.16798C121.629 7.12146 121.676 7.07494 121.737 7.02833C121.877 6.98181 121.986 7.19903 121.862 7.29216C121.118 8.03685 120.388 8.76616 119.643 9.51086C119.581 9.57294 119.504 9.63503 119.457 9.7126C119.395 9.85225 119.565 10.0384 119.705 9.97634C119.798 9.92981 119.86 9.83677 119.937 9.77468C120.791 8.95233 121.614 8.0679 122.483 7.24555C122.591 7.15251 122.762 7.30764 122.7 7.43181C122.637 7.50938 122.56 7.58694 122.498 7.66451C121.381 8.78164 120.279 9.89877 119.162 11.0004C119.084 11.078 119.007 11.1401 118.976 11.2487C118.93 11.3883 119.084 11.5435 119.224 11.4969C119.333 11.4659 119.395 11.3728 119.457 11.3108L123.104 7.66451C123.165 7.60242 123.258 7.54042 123.336 7.60242C123.413 7.64894 123.413 7.77312 123.351 7.8352C123.104 8.12999 122.809 8.37825 122.544 8.64199C121.536 9.65051 120.528 10.6591 119.519 11.6831C119.442 11.7763 119.302 11.8538 119.333 11.9935C119.348 12.1021 119.457 12.1486 119.55 12.1796C119.721 12.1021 119.83 11.9624 119.969 11.8383C120.357 11.4504 120.73 11.0625 121.132 10.6746C121.971 9.83677 122.809 8.99886 123.646 8.16103C123.708 8.09894 123.771 8.02138 123.864 8.03685C123.925 8.03685 123.972 8.09894 124.003 8.16103C124.018 8.23859 123.957 8.30068 123.91 8.36277C122.607 9.66607 121.304 10.9694 120 12.2728C119.937 12.3503 119.83 12.4434 119.876 12.552C119.907 12.7072 120.124 12.7537 120.233 12.6451C121.536 11.3418 122.839 10.0384 124.143 8.73512C124.19 8.68851 124.251 8.62642 124.329 8.62642C124.406 8.62642 124.469 8.68851 124.469 8.76616C124.469 8.84373 124.406 8.90581 124.36 8.96781C123.147 10.1651 121.942 11.3702 120.744 12.583C120.683 12.6606 120.574 12.7227 120.574 12.8313C120.558 12.9709 120.698 13.095 120.823 13.0485C120.916 13.0175 120.978 12.9399 121.039 12.8778C122.234 11.6987 123.398 10.5039 124.608 9.32468C124.717 9.24712 124.872 9.37129 124.841 9.49538C124.794 9.57294 124.732 9.61955 124.671 9.68155C123.832 10.5349 122.964 11.3728 122.125 12.2262C121.955 12.3658 122.218 12.6606 122.374 12.5209C123.197 11.7296 123.972 10.9073 124.81 10.116C124.934 10.0229 125.12 10.2246 124.996 10.3332C124.313 11.0469 123.584 11.7296 122.902 12.4434C122.778 12.5365 122.871 12.7537 123.01 12.7692C123.088 12.7848 123.165 12.7227 123.227 12.6762L124.717 11.1866C124.764 11.1401 124.825 11.0625 124.903 11.078C125.011 11.0936 125.089 11.2176 125.011 11.3108C124.639 11.7296 124.204 12.1021 123.832 12.5055C123.771 12.5676 123.693 12.6296 123.693 12.7227C123.708 12.8313 123.771 12.9244 123.879 12.9399C124.034 12.9089 124.127 12.7537 124.283 12.6916C124.36 12.7072 124.438 12.8003 124.422 12.8778C124.298 13.0641 124.127 13.2036 123.957 13.3589C123.258 14.0416 122.297 14.3984 121.334 14.3829C120.512 14.3829 119.705 14.0881 119.069 13.5761C118.386 13.033 117.89 12.2417 117.735 11.3883C117.579 10.6281 117.672 9.80573 117.998 9.10747C118.247 8.54894 118.651 8.0679 119.116 7.66451C119.162 7.61799 119.224 7.60242 119.271 7.63346C119.333 7.67998 119.364 7.74216 119.395 7.80416C119.302 7.91277 119.177 8.0059 119.116 8.14546C119.084 8.30068 119.317 8.45581 119.426 8.33172C119.844 7.94381 120.248 7.46277 120.714 7.05938Z" fill="white"/>
<path d="M128.627 6.57861H125.09C126.191 7.6027 126.874 9.04566 126.874 10.6749C126.874 13.0488 125.384 15.0814 123.29 15.8882C123.274 15.8882 123.258 15.9038 123.243 15.9038C123.165 15.9347 123.088 15.9503 123.026 15.9813C123.01 15.9813 122.995 15.9968 122.963 15.9968C122.422 16.1711 121.857 16.2601 121.288 16.2605C119.643 16.2605 118.17 15.5469 117.145 14.4142C117.115 14.3987 117.099 14.3831 117.068 14.3521C117.052 18.2777 117.068 22.2032 117.068 26.1132H120.171V19.1155C122.142 19.3948 124.205 18.9448 125.865 17.8742C127.774 16.664 129.17 14.6314 129.59 12.3971C129.992 10.4421 129.636 8.31644 128.627 6.57861Z" fill="white"/>
<path d="M132.443 6.5166H129.573C130.178 7.80443 130.675 9.24748 130.675 10.799C130.675 15.9658 126.843 20.1706 122.094 20.1706C121.66 20.1706 121.225 20.1396 120.822 20.062V26.0978H123.692V22.6687C125.787 22.2964 127.85 21.4585 129.464 20.0465C131.156 18.588 132.273 16.5399 132.816 14.3832C133.452 11.7921 133.483 8.99921 132.443 6.5166Z" fill="#4DA1FF"/>
</svg>
