<svg width="16" height="17" viewBox="0 0 16 17" fill="none" xmlns="http://www.w3.org/2000/svg">
<path d="M4.16667 2.5C2.97602 2.5 2 3.47602 2 4.66667V12.3333C2 13.524 2.97602 14.5 4.16667 14.5H11.8333C13.024 14.5 14 13.524 14 12.3333V4.66667C14 3.47602 13.024 2.5 11.8333 2.5H4.16667ZM4.16667 3.5H11.8333C12.4834 3.5 13 4.01665 13 4.66667V5.16667H3V4.66667C3 4.01665 3.51665 3.5 4.16667 3.5ZM3 6.16667H13V12.3333C13 12.9834 12.4834 13.5 11.8333 13.5H4.16667C3.51665 13.5 3 12.9834 3 12.3333V6.16667ZM5.16667 7.5C4.94565 7.5 4.73369 7.5878 4.57741 7.74408C4.42113 7.90036 4.33333 8.11232 4.33333 8.33333C4.33333 8.55435 4.42113 8.76631 4.57741 8.92259C4.73369 9.07887 4.94565 9.16667 5.16667 9.16667C5.38768 9.16667 5.59964 9.07887 5.75592 8.92259C5.9122 8.76631 6 8.55435 6 8.33333C6 8.11232 5.9122 7.90036 5.75592 7.74408C5.59964 7.5878 5.38768 7.5 5.16667 7.5ZM8 7.5C7.77899 7.5 7.56702 7.5878 7.41074 7.74408C7.25446 7.90036 7.16667 8.11232 7.16667 8.33333C7.16667 8.55435 7.25446 8.76631 7.41074 8.92259C7.56702 9.07887 7.77899 9.16667 8 9.16667C8.22101 9.16667 8.43298 9.07887 8.58926 8.92259C8.74554 8.76631 8.83333 8.55435 8.83333 8.33333C8.83333 8.11232 8.74554 7.90036 8.58926 7.74408C8.43298 7.5878 8.22101 7.5 8 7.5ZM10.8333 7.5C10.6123 7.5 10.4004 7.5878 10.2441 7.74408C10.0878 7.90036 10 8.11232 10 8.33333C10 8.55435 10.0878 8.76631 10.2441 8.92259C10.4004 9.07887 10.6123 9.16667 10.8333 9.16667C11.0543 9.16667 11.2663 9.07887 11.4226 8.92259C11.5789 8.76631 11.6667 8.55435 11.6667 8.33333C11.6667 8.11232 11.5789 7.90036 11.4226 7.74408C11.2663 7.5878 11.0543 7.5 10.8333 7.5ZM5.16667 10.5C4.94565 10.5 4.73369 10.5878 4.57741 10.7441C4.42113 10.9004 4.33333 11.1123 4.33333 11.3333C4.33333 11.5543 4.42113 11.7663 4.57741 11.9226C4.73369 12.0789 4.94565 12.1667 5.16667 12.1667C5.38768 12.1667 5.59964 12.0789 5.75592 11.9226C5.9122 11.7663 6 11.5543 6 11.3333C6 11.1123 5.9122 10.9004 5.75592 10.7441C5.59964 10.5878 5.38768 10.5 5.16667 10.5ZM8 10.5C7.77899 10.5 7.56702 10.5878 7.41074 10.7441C7.25446 10.9004 7.16667 11.1123 7.16667 11.3333C7.16667 11.5543 7.25446 11.7663 7.41074 11.9226C7.56702 12.0789 7.77899 12.1667 8 12.1667C8.22101 12.1667 8.43298 12.0789 8.58926 11.9226C8.74554 11.7663 8.83333 11.5543 8.83333 11.3333C8.83333 11.1123 8.74554 10.9004 8.58926 10.7441C8.43298 10.5878 8.22101 10.5 8 10.5Z" fill="#384250"/>
</svg>
