<svg width="26" height="26" viewBox="0 0 26 26" fill="none" xmlns="http://www.w3.org/2000/svg">
<path d="M6.37644 4.3638C6.48715 4.33672 6.59782 4.32771 6.70652 4.33672C7.03261 4.36374 7.33257 4.54735 7.50547 4.84115L9.88204 8.89857C10.0701 9.2201 10.0693 9.61809 9.87865 9.93789L8.91381 11.5561C8.69714 11.9184 8.72238 12.3718 8.98152 12.7038C9.42958 13.2784 10.1856 14.2024 10.9908 15.0076C11.7959 15.8118 12.7199 16.5679 13.2945 17.0168C13.6273 17.2759 14.0799 17.3003 14.4422 17.0845L16.0604 16.1197C16.3802 15.9299 16.7748 15.9265 17.0964 16.1146C18.0748 16.6875 20.1846 17.9242 21.1622 18.4962C21.554 18.725 21.7445 19.1791 21.6379 19.6202C21.533 20.0509 21.2784 20.6094 20.6917 21.1961C18.8595 23.0282 15.7724 23.9998 8.88672 17.1133C2.00106 10.2267 2.97265 7.1396 4.80391 5.30833C5.38891 4.72333 5.94657 4.46867 6.37644 4.3638Z" fill="#2D3282"/>
<circle cx="8" cy="18" r="6" fill="#FF6060"/>
<rect x="13" y="9" width="4" height="2" rx="1" fill="#2D3282"/>
<rect x="19" y="9" width="4" height="2" rx="1" fill="#2D3282"/>
<path d="M5.65952 14.9935C5.52695 14.9936 5.39744 15.0333 5.28754 15.1075C5.17763 15.1816 5.09232 15.2868 5.04249 15.4096C4.99267 15.5325 4.9806 15.6674 5.00782 15.7971C5.03504 15.9269 5.10033 16.0456 5.19533 16.138L7.05731 18L5.19533 19.862C5.13135 19.9234 5.08026 19.997 5.04507 20.0784C5.00988 20.1598 4.99129 20.2474 4.99039 20.3361C4.98949 20.4248 5.00629 20.5128 5.03982 20.5949C5.07334 20.677 5.12292 20.7517 5.18564 20.8144C5.24836 20.8771 5.32296 20.9267 5.40508 20.9602C5.4872 20.9937 5.57518 21.0105 5.66387 21.0096C5.75257 21.0087 5.84019 20.9901 5.92161 20.9549C6.00303 20.9197 6.07661 20.8687 6.13804 20.8047L8.00001 18.9427L9.86199 20.8047C9.92342 20.8687 9.997 20.9197 10.0784 20.9549C10.1598 20.9901 10.2475 21.0087 10.3362 21.0096C10.4249 21.0105 10.5128 20.9937 10.595 20.9602C10.6771 20.9267 10.7517 20.8771 10.8144 20.8144C10.8771 20.7517 10.9267 20.6771 10.9602 20.5949C10.9937 20.5128 11.0105 20.4248 11.0096 20.3361C11.0087 20.2474 10.9901 20.1598 10.955 20.0784C10.9198 19.997 10.8687 19.9234 10.8047 19.862L8.94272 18L10.8047 16.138C10.901 16.0444 10.9668 15.9238 10.9935 15.7921C11.0201 15.6605 11.0064 15.5238 10.954 15.4001C10.9016 15.2764 10.8131 15.1713 10.7 15.0988C10.587 15.0262 10.4546 14.9895 10.3203 14.9935C10.1471 14.9986 9.98274 15.071 9.86199 15.1953L8.00001 17.0573L6.13804 15.1953C6.07583 15.1314 6.00143 15.0806 5.91924 15.0459C5.83704 15.0112 5.74873 14.9934 5.65952 14.9935Z" fill="white"/>
</svg>
