<svg width="200" height="201" viewBox="0 0 200 201" fill="none" xmlns="http://www.w3.org/2000/svg">
<circle cx="100" cy="100.593" r="100" fill="#F5F8FF"/>
<circle cx="100" cy="100.694" r="63.6364" fill="#E0EAFF"/>
<path d="M114.109 79.0728C113.751 79.0728 113.401 79.1797 113.104 79.3797C112.807 79.5797 112.577 79.8638 112.442 80.1955C112.307 80.5273 112.275 80.8917 112.348 81.2422C112.421 81.5926 112.598 81.9132 112.854 82.163L116.982 86.2903H101.527C101.289 86.287 101.052 86.331 100.83 86.42C100.609 86.5089 100.408 86.641 100.238 86.8084C100.068 86.9759 99.933 87.1755 99.8409 87.3956C99.7488 87.6156 99.7014 87.8518 99.7014 88.0903C99.7014 88.3289 99.7488 88.565 99.8409 88.7851C99.933 89.0052 100.068 89.2047 100.238 89.3722C100.408 89.5397 100.609 89.6718 100.83 89.7607C101.052 89.8496 101.289 89.8937 101.527 89.8903H116.982L112.854 94.0177C112.682 94.1835 112.544 94.3822 112.449 94.602C112.354 94.8219 112.303 95.0584 112.301 95.2979C112.299 95.5374 112.344 95.7749 112.435 95.9967C112.525 96.2184 112.659 96.4198 112.828 96.5892C112.998 96.7585 113.199 96.8924 113.421 96.9829C113.642 97.0734 113.88 97.1188 114.119 97.1163C114.359 97.1139 114.596 97.0637 114.815 96.9687C115.035 96.8737 115.234 96.7357 115.4 96.563L122.6 89.363C122.937 89.0254 123.127 88.5676 123.127 88.0903C123.127 87.613 122.937 87.1553 122.6 86.8177L115.4 79.6177C115.232 79.4452 115.031 79.3082 114.81 79.2146C114.588 79.121 114.35 79.0728 114.109 79.0728ZM86.656 82.6974C86.4302 82.6787 86.2004 82.6974 85.9704 82.7536C85.0776 82.9714 83.9194 83.5003 82.7044 84.7153C78.901 88.5187 76.8831 94.9305 91.1841 109.233C105.485 123.536 111.897 121.518 115.702 117.713C116.921 116.494 117.449 115.335 117.667 114.44C117.889 113.524 117.493 112.581 116.679 112.106C114.649 110.918 110.267 108.349 108.235 107.159C107.567 106.768 106.748 106.775 106.083 107.17L102.722 109.174C101.97 109.622 101.03 109.571 100.339 109.033C99.1454 108.101 97.2262 106.53 95.554 104.86C93.8818 103.188 92.3116 101.268 91.381 100.075C90.8428 99.3857 90.7903 98.4439 91.2403 97.6915L93.2442 94.3306C93.6402 93.6664 93.6419 92.8398 93.2513 92.172L88.3153 83.745C87.9562 83.1348 87.3332 82.7535 86.656 82.6974Z" fill="#2D3282"/>
</svg>
