<svg width="12" height="12" viewBox="0 0 12 12" fill="none" xmlns="http://www.w3.org/2000/svg">
<path d="M8.90501 7.34819C8.71554 7.23713 8.48267 7.23946 8.29414 7.35146L7.33934 7.92033C7.12561 8.04773 6.85867 8.03279 6.66267 7.87973C6.32387 7.61513 5.77834 7.16993 5.30374 6.69533C4.82914 6.22073 4.38394 5.67519 4.11934 5.33639C3.96627 5.14039 3.95134 4.87346 4.07874 4.65973L4.64761 3.70493C4.76007 3.51639 4.76101 3.28166 4.64994 3.09219L3.24901 0.699125C3.11321 0.467658 2.84347 0.353791 2.58261 0.417725C2.32921 0.479325 2.00021 0.629591 1.65534 0.974925C0.575472 2.05479 0.00193882 3.87619 4.06287 7.93713C8.12381 11.9981 9.94474 11.425 11.0251 10.3447C11.3709 9.99886 11.5207 9.66939 11.5827 9.41553C11.6457 9.15513 11.5337 8.88726 11.3027 8.75193C10.7259 8.41453 9.48181 7.68606 8.90501 7.34819Z" fill="#12B76A"/>
</svg>
