<svg width="16" height="16" viewBox="0 0 16 16" fill="none" xmlns="http://www.w3.org/2000/svg">
<path d="M3.19993 1.60001C3.05848 1.60001 2.92283 1.6562 2.82281 1.75622C2.72279 1.85624 2.6666 1.99189 2.6666 2.13334C2.6666 2.13403 2.6666 2.13473 2.6666 2.13542V8.00001V13.8646C2.6666 13.8653 2.6666 13.866 2.6666 13.8667C2.6666 14.0081 2.72279 14.1438 2.82281 14.2438C2.92283 14.3438 3.05848 14.4 3.19993 14.4C3.31095 14.3997 3.4191 14.3647 3.5093 14.3L3.51035 14.3011L14.0885 8.48438C14.1813 8.44192 14.26 8.3737 14.3152 8.28784C14.3704 8.20198 14.3998 8.10209 14.3999 8.00001C14.4 7.89507 14.3691 7.79245 14.3111 7.70499C14.2531 7.61753 14.1706 7.54913 14.0739 7.50834L3.51035 1.69896H3.5093C3.41898 1.63461 3.31084 1.60002 3.19993 1.60001Z" fill="#8098F9"/>
</svg>
