<svg width="22" height="23" viewBox="0 0 22 23" fill="none" xmlns="http://www.w3.org/2000/svg">
<path d="M10.9602 0.782654C10.0929 0.782654 9.25667 0.892339 8.45835 1.07806C8.29187 1.11692 8.14158 1.20652 8.02824 1.33449C7.91489 1.46246 7.8441 1.62247 7.82563 1.79242L7.65053 3.38871C7.59327 3.9118 7.2911 4.37462 6.8352 4.63803C6.38021 4.9009 5.82794 4.93002 5.34633 4.71859H5.34526L3.87895 4.07299C3.72255 4.00416 3.54864 3.98559 3.38123 4.01984C3.21382 4.05409 3.06118 4.13947 2.94438 4.2642C1.80451 5.47943 0.929675 6.95094 0.432857 8.5933C0.383369 8.75676 0.385828 8.93156 0.439895 9.09356C0.493961 9.25557 0.596971 9.39681 0.734712 9.49779L2.03559 10.4517C2.46039 10.764 2.7102 11.2562 2.7102 11.7827C2.7102 12.3094 2.46039 12.802 2.03559 13.1136L0.734712 14.0664C0.596971 14.1674 0.493961 14.3087 0.439895 14.4707C0.385828 14.6327 0.383369 14.8075 0.432857 14.9709C0.929622 16.6131 1.80376 18.0857 2.94438 19.3011C3.06131 19.4257 3.21401 19.5108 3.38141 19.5449C3.54881 19.5789 3.72266 19.5602 3.87895 19.4912L5.34526 18.8456C5.8271 18.6337 6.37989 18.6642 6.8352 18.9273C7.2911 19.1907 7.59327 19.6535 7.65053 20.1766L7.82563 21.7729C7.84424 21.9425 7.91497 22.1022 8.02809 22.2299C8.14121 22.3577 8.29116 22.4472 8.45727 22.4862C9.25595 22.6726 10.0929 22.7827 10.9602 22.7827C11.8275 22.7827 12.6637 22.673 13.4621 22.4872C13.6285 22.4484 13.7788 22.3588 13.8922 22.2308C14.0055 22.1028 14.0763 21.9428 14.0948 21.7729L14.2699 20.1766C14.3271 19.6535 14.6293 19.1907 15.0852 18.9273C15.5402 18.6644 16.0925 18.6342 16.5741 18.8456L18.0415 19.4912C18.1977 19.5602 18.3716 19.5789 18.539 19.5449C18.7064 19.5108 18.8591 19.4257 18.976 19.3011C20.1159 18.0859 20.9907 16.6133 21.4875 14.9709C21.537 14.8075 21.5346 14.6327 21.4805 14.4707C21.4264 14.3087 21.3234 14.1674 21.1857 14.0664L19.8848 13.1136C19.46 12.802 19.2102 12.3094 19.2102 11.7827C19.2102 11.2559 19.46 10.7633 19.8848 10.4517L21.1857 9.49887C21.3234 9.39788 21.4264 9.25665 21.4805 9.09464C21.5346 8.93263 21.537 8.75784 21.4875 8.59437C20.9907 6.95201 20.1159 5.47943 18.976 4.2642C18.8591 4.13965 18.7064 4.05448 18.539 4.02042C18.3716 3.98636 18.1977 4.0051 18.0415 4.07406L16.5741 4.71967C16.0925 4.9311 15.5402 4.9009 15.0852 4.63803C14.6293 4.37462 14.3271 3.9118 14.2699 3.38871L14.0948 1.79242C14.0762 1.62281 14.0054 1.46314 13.8923 1.3354C13.7792 1.20765 13.6292 1.11812 13.4631 1.07914C12.6644 0.892739 11.8275 0.782654 10.9602 0.782654ZM10.9602 2.43265C11.4961 2.43265 12.0107 2.52884 12.5264 2.61957L12.6295 3.5681C12.7439 4.61251 13.351 5.54144 14.2602 6.06674C15.17 6.59238 16.2777 6.65281 17.239 6.23002L18.1113 5.84652C18.7811 6.65083 19.3114 7.5593 19.6818 8.55463L18.9083 9.12181C18.0615 9.743 17.5602 10.732 17.5602 11.7827C17.5602 12.8333 18.0615 13.8223 18.9083 14.4435L19.6818 15.0107C19.3114 16.006 18.7811 16.9145 18.1113 17.7188L17.239 17.3353C16.2777 16.9125 15.17 16.9729 14.2602 17.4986C13.351 18.0239 12.7439 18.9528 12.6295 19.9972L12.5264 20.9457C12.0107 21.0362 11.4958 21.1327 10.9602 21.1327C10.4243 21.1327 9.90974 21.0365 9.39399 20.9457L9.29086 19.9972C9.17653 18.9528 8.5694 18.0239 7.6602 17.4986C6.75041 16.9729 5.64275 16.9125 4.68139 17.3353L3.80913 17.7188C3.13919 16.9146 2.60897 16.0061 2.23862 15.0107L3.01206 14.4435C3.85885 13.8223 4.3602 12.8333 4.3602 11.7827C4.3602 10.732 3.85845 9.74235 3.01206 9.12074L2.23862 8.55355C2.60918 7.55785 3.14 6.64997 3.8102 5.84545L4.68139 6.22894C5.64275 6.65173 6.75041 6.59238 7.6602 6.06674C8.5694 5.54144 9.17653 4.61251 9.29086 3.5681L9.39399 2.61957C9.9097 2.52909 10.4246 2.43265 10.9602 2.43265ZM10.9602 7.38265C8.53992 7.38265 6.5602 9.36237 6.5602 11.7827C6.5602 14.2029 8.53992 16.1827 10.9602 16.1827C13.3805 16.1827 15.3602 14.2029 15.3602 11.7827C15.3602 9.36237 13.3805 7.38265 10.9602 7.38265ZM10.9602 9.03265C12.4888 9.03265 13.7102 10.2541 13.7102 11.7827C13.7102 13.3112 12.4888 14.5327 10.9602 14.5327C9.43164 14.5327 8.2102 13.3112 8.2102 11.7827C8.2102 10.2541 9.43164 9.03265 10.9602 9.03265Z" fill="#A4BCFD"/>
</svg>
