<svg width="22" height="23" viewBox="0 0 22 23" fill="none" xmlns="http://www.w3.org/2000/svg">
<path d="M11 0.782654C4.93464 0.782654 0 5.71729 0 11.7827C0 17.848 4.93464 22.7827 11 22.7827C17.0654 22.7827 22 17.848 22 11.7827C22 5.71729 17.0654 0.782654 11 0.782654ZM10.175 2.47455V10.9577H1.69189C2.08516 6.44556 5.66291 2.86782 10.175 2.47455ZM11.825 2.47455C16.6095 2.89156 20.35 6.88774 20.35 11.7827C20.35 14.0713 19.5298 16.1622 18.1704 17.7854L11.825 11.4411V2.47455ZM1.69189 12.6077H10.6584L17.0027 18.9531C15.3796 20.3124 13.2887 21.1327 11 21.1327C6.10508 21.1327 2.10891 17.3922 1.69189 12.6077Z" fill="white"/>
</svg>
