<svg width="200" height="201" viewBox="0 0 200 201" fill="none" xmlns="http://www.w3.org/2000/svg">
<circle cx="100" cy="100.593" r="100" fill="#F9FAFB"/>
<circle cx="100" cy="100.694" r="63.6364" fill="#F3F4F6"/>
<path d="M86.1142 81.8553C86.3496 81.7977 86.5849 81.7786 86.816 81.7977C87.5094 81.8551 88.1472 82.2456 88.5149 82.8703L93.5682 91.4976C93.9681 92.1813 93.9664 93.0276 93.561 93.7075L91.5094 97.1484C91.0487 97.9187 91.1024 98.8829 91.6534 99.5887C92.6061 100.81 94.2137 102.775 95.9257 104.487C97.6377 106.197 99.6025 107.805 100.824 108.76C101.532 109.311 102.494 109.362 103.265 108.903L106.705 106.852C107.385 106.448 108.225 106.441 108.908 106.841C110.989 108.059 115.475 110.689 117.554 111.905C118.387 112.392 118.792 113.357 118.565 114.295C118.342 115.211 117.801 116.398 116.553 117.646C112.657 121.542 106.093 123.608 91.4519 108.965C76.8107 94.3217 78.8766 87.7575 82.7705 83.8637C84.0144 82.6198 85.2001 82.0783 86.1142 81.8553Z" fill="#2D3282"/>
<circle cx="89.827" cy="110.59" r="12.6" fill="#FF6060"/>
<rect x="99.7271" y="92.5903" width="8.1" height="3.6" rx="1.8" fill="#2D3282"/>
<rect x="113.227" y="92.5903" width="8.1" height="3.6" rx="1.8" fill="#2D3282"/>
<path d="M85.1931 104.638C84.9306 104.638 84.6742 104.717 84.4566 104.863C84.239 105.01 84.07 105.219 83.9714 105.462C83.8727 105.705 83.8488 105.972 83.9027 106.229C83.9566 106.486 84.0859 106.721 84.274 106.904L87.9607 110.591L84.274 114.277C84.1473 114.399 84.0462 114.545 83.9765 114.706C83.9068 114.867 83.87 115.041 83.8682 115.216C83.8664 115.392 83.8997 115.566 83.9661 115.729C84.0325 115.891 84.1306 116.039 84.2548 116.163C84.379 116.287 84.5267 116.385 84.6893 116.452C84.8519 116.518 85.0261 116.552 85.2017 116.55C85.3773 116.548 85.5508 116.511 85.712 116.441C85.8733 116.372 86.0189 116.271 86.1406 116.144L89.8273 112.457L93.514 116.144C93.6356 116.271 93.7813 116.372 93.9425 116.441C94.1037 116.511 94.2772 116.548 94.4529 116.55C94.6285 116.552 94.8027 116.518 94.9653 116.452C95.1279 116.385 95.2756 116.287 95.3998 116.163C95.5239 116.039 95.6221 115.891 95.6885 115.729C95.7549 115.566 95.7881 115.392 95.7863 115.216C95.7846 115.041 95.7478 114.867 95.6781 114.706C95.6084 114.545 95.5073 114.399 95.3806 114.277L91.6938 110.591L95.3806 106.904C95.5713 106.719 95.7016 106.48 95.7543 106.219C95.8071 105.958 95.7798 105.688 95.6762 105.443C95.5725 105.198 95.3972 104.99 95.1733 104.846C94.9495 104.703 94.6874 104.63 94.4215 104.638C94.0786 104.648 93.7531 104.791 93.514 105.037L89.8273 108.724L86.1406 105.037C86.0174 104.911 85.8701 104.81 85.7073 104.742C85.5446 104.673 85.3697 104.638 85.1931 104.638Z" fill="white"/>
</svg>
