<svg width="22" height="23" viewBox="0 0 22 23" fill="none" xmlns="http://www.w3.org/2000/svg">
<path d="M11 0.781677C4.93476 0.781677 0 5.71644 0 11.7817C0 13.5831 0.474489 15.2669 1.24395 16.7682L0.0515625 21.0371C-0.226162 22.029 0.754559 23.0097 1.74668 22.7323L6.01885 21.5399C7.51891 22.3077 9.20026 22.7817 11 22.7817C17.0652 22.7817 22 17.8469 22 11.7817C22 5.71644 17.0652 0.781677 11 0.781677ZM11 2.43168C16.1735 2.43168 20.35 6.60822 20.35 11.7817C20.35 16.9551 16.1735 21.1317 11 21.1317C9.34913 21.1317 7.80483 20.7024 6.4582 19.9522C6.26839 19.8464 6.0445 19.8198 5.83516 19.8781L1.77246 21.0114L2.90684 16.9508C2.96544 16.7411 2.93879 16.5168 2.83271 16.3267C2.08101 14.9791 1.65 13.4342 1.65 11.7817C1.65 6.60822 5.82654 2.43168 11 2.43168ZM7.15 10.6828C6.54225 10.6828 6.05 11.175 6.05 11.7828C6.05 12.3905 6.54225 12.8828 7.15 12.8828C7.75775 12.8828 8.25 12.3905 8.25 11.7828C8.25 11.175 7.75775 10.6828 7.15 10.6828ZM11 10.6828C10.3923 10.6828 9.9 11.175 9.9 11.7828C9.9 12.3905 10.3923 12.8828 11 12.8828C11.6077 12.8828 12.1 12.3905 12.1 11.7828C12.1 11.175 11.6077 10.6828 11 10.6828ZM14.85 10.6828C14.2423 10.6828 13.75 11.175 13.75 11.7828C13.75 12.3905 14.2423 12.8828 14.85 12.8828C15.4578 12.8828 15.95 12.3905 15.95 11.7828C15.95 11.175 15.4578 10.6828 14.85 10.6828Z" fill="white"/>
</svg>
